<?xml version="1.0"?>
<svg xmlns="http://www.w3.org/2000/svg" width="65" height="64" viewBox="0 0 65 64" fill="none">
<g clip-path="url(#clip0_4206_3609)">
<rect x="0.597656" width="64" height="64" rx="32" fill="#F9F9F9"/>
<path d="M23.9206 43.064C21.5739 43.064 19.7819 42.1893 18.5446 40.44C17.3072 38.6907 16.6886 36.2373 16.6886 33.08C16.6886 29.5387 17.5846 26.4453 19.3766 23.8C21.1686 21.112 23.8779 18.872 27.5046 17.08L29.9366 22.072C27.6752 23.1387 25.9899 24.4187 24.8806 25.912C23.7712 27.4053 23.2166 29.24 23.2166 31.416L23.4086 37.944L19.7606 32.888C20.3579 32.4187 20.9979 32.0347 21.6806 31.736C22.4059 31.3947 23.1526 31.224 23.9206 31.224C25.5419 31.224 26.9072 31.736 28.0166 32.76C29.1686 33.7413 29.7446 35.1067 29.7446 36.856C29.7446 38.7333 29.1899 40.248 28.0806 41.4C27.0139 42.5093 25.6272 43.064 23.9206 43.064ZM41.8406 43.064C39.4939 43.064 37.7019 42.1893 36.4646 40.44C35.2272 38.6907 34.6086 36.2373 34.6086 33.08C34.6086 29.5387 35.5046 26.4453 37.2966 23.8C39.0886 21.112 41.7979 18.872 45.4246 17.08L47.8566 22.072C45.5952 23.1387 43.9099 24.4187 42.8006 25.912C41.6912 27.4053 41.1366 29.24 41.1366 31.416L41.3286 37.944L37.6806 32.888C38.2779 32.4187 38.9179 32.0347 39.6006 31.736C40.3259 31.3947 41.0726 31.224 41.8406 31.224C43.4619 31.224 44.8272 31.736 45.9366 32.76C47.0886 33.7413 47.6646 35.1067 47.6646 36.856C47.6646 38.7333 47.1099 40.248 46.0006 41.4C44.9339 42.5093 43.5472 43.064 41.8406 43.064Z" fill="black"/>
</g>
<defs>
<clipPath id="clip0_4206_3609">
<rect x="0.597656" width="64" height="64" rx="32" fill="white"/>
</clipPath>
</defs>
</svg>
