<?xml version="1.0"?>
<svg xmlns="http://www.w3.org/2000/svg" width="145" height="144" viewBox="0 0 145 144" fill="none">
<rect x="0.597656" width="144" height="144" rx="72" fill="#7FF89B"/>
<path d="M104.473 66.6513C104.88 65.1345 105.09 63.5717 105.098 62.0013C105.099 57.7923 103.583 53.724 100.828 50.542C98.0729 47.36 94.2634 45.2775 90.0977 44.6763V44.5013C90.0947 42.4713 89.4741 40.4902 88.3182 38.8215C87.1623 37.1527 85.5259 35.8753 83.6265 35.1589C81.7271 34.4426 79.6547 34.3213 77.6847 34.8111C75.7146 35.301 73.9404 36.3788 72.5977 37.9013C71.255 36.3788 69.4807 35.301 67.5107 34.8111C65.5407 34.3213 63.4682 34.4426 61.5688 35.1589C59.6694 35.8753 58.033 37.1527 56.8771 38.8215C55.7212 40.4902 55.1006 42.4713 55.0977 44.5013V44.6763C50.9319 45.2775 47.1224 47.36 44.3674 50.542C41.6125 53.724 40.0966 57.7923 40.0977 62.0013C40.1053 63.5717 40.3154 65.1345 40.7227 66.6513C38.5936 68.6205 36.9873 71.0879 36.0482 73.8318C35.1091 76.5756 34.8666 79.5099 35.3426 82.3707C35.8186 85.2315 36.998 87.9291 38.775 90.2211C40.552 92.5131 42.8707 94.3275 45.5227 95.5013C46.1681 98.0332 47.5909 100.299 49.5908 101.981C51.5908 103.662 54.0675 104.675 56.6727 104.876C57.5071 106.181 58.633 107.274 59.9618 108.069C61.2906 108.864 62.7858 109.34 64.3298 109.458C65.8738 109.577 67.4242 109.336 68.859 108.753C70.2937 108.171 71.5736 107.263 72.5977 106.101C73.6218 107.263 74.9016 108.171 76.3364 108.753C77.7711 109.336 79.3216 109.577 80.8655 109.458C82.4095 109.34 83.9048 108.864 85.2335 108.069C86.5623 107.274 87.6883 106.181 88.5227 104.876C91.1279 104.675 93.6045 103.662 95.6045 101.981C97.6045 100.299 99.0272 98.0332 99.6727 95.5013C102.325 94.3275 104.643 92.5131 106.42 90.2211C108.197 87.9291 109.377 85.2315 109.853 82.3707C110.329 79.5099 110.086 76.5756 109.147 73.8318C108.208 71.0879 106.602 68.6205 104.473 66.6513ZM72.5977 89.5013C69.6309 89.5013 66.7308 88.6215 64.2641 86.9733C61.7974 85.3251 59.8748 82.9824 58.7395 80.2415C57.6042 77.5006 57.3071 74.4846 57.8859 71.5749C58.4647 68.6652 59.8933 65.9924 61.9911 63.8947C64.0889 61.7969 66.7616 60.3683 69.6713 59.7895C72.581 59.2107 75.597 59.5078 78.3379 60.6431C81.0788 61.7784 83.4215 63.701 85.0697 66.1677C86.7179 68.6344 87.5977 71.5345 87.5977 74.5013C87.5977 78.4795 86.0173 82.2948 83.2043 85.1079C80.3912 87.9209 76.5759 89.5013 72.5977 89.5013ZM65.0977 104.501C64.1063 104.501 63.1373 104.207 62.3137 103.655C61.4902 103.103 60.8494 102.318 60.4727 101.401C60.2692 100.916 59.9181 100.508 59.4693 100.234C59.0205 99.9606 58.4968 99.8353 57.9727 99.8763H57.5477C55.7089 99.8903 53.929 99.2283 52.5463 98.0161C51.1636 96.804 50.2744 95.1261 50.0477 93.3013C49.9904 92.8399 49.8057 92.4037 49.5142 92.0416C49.2227 91.6795 48.8361 91.4058 48.3977 91.2513C46.2753 90.4899 44.3984 89.1686 42.9658 87.4274C41.5332 85.6861 40.5983 83.5899 40.2601 81.3606C39.9218 79.1313 40.1929 76.852 41.0445 74.7643C41.8962 72.6765 43.2967 70.8579 45.0977 69.5013C45.5374 69.1721 45.8565 68.7072 46.0056 68.1785C46.1548 67.6498 46.1256 67.0867 45.9227 66.5763C45.1759 64.6776 44.9053 62.6251 45.1344 60.5978C45.3634 58.5705 46.0852 56.63 47.2368 54.9459C48.3883 53.2617 49.9346 51.885 51.7406 50.936C53.5466 49.9869 55.5575 49.4943 57.5977 49.5013C58.2607 49.5013 58.8966 49.2379 59.3654 48.769C59.8343 48.3002 60.0977 47.6643 60.0977 47.0013V44.5013C60.0977 43.1752 60.6244 41.9034 61.5621 40.9657C62.4998 40.028 63.7716 39.5013 65.0977 39.5013C66.4237 39.5013 67.6955 40.028 68.6332 40.9657C69.5709 41.9034 70.0977 43.1752 70.0977 44.5013V54.6763C65.293 55.3161 60.8842 57.6789 57.691 61.3255C54.4979 64.9721 52.7376 69.6542 52.7376 74.5013C52.7376 79.3483 54.4979 84.0304 57.691 87.677C60.8842 91.3236 65.293 93.6865 70.0977 94.3263V99.5013C70.0977 100.827 69.5709 102.099 68.6332 103.037C67.6955 103.974 66.4237 104.501 65.0977 104.501ZM96.6477 91.3013C96.2092 91.4558 95.8226 91.7295 95.5311 92.0916C95.2396 92.4537 95.0549 92.8899 94.9977 93.3513C94.773 95.1589 93.8982 96.8231 92.5365 98.033C91.1747 99.2429 89.4192 99.9159 87.5977 99.9263H87.1477C86.6235 99.8853 86.0998 100.011 85.651 100.284C85.2022 100.558 84.8511 100.966 84.6477 101.451C84.1791 102.482 83.3748 103.322 82.3664 103.836C81.3579 104.35 80.2049 104.507 79.0959 104.28C77.987 104.054 76.9876 103.458 76.2613 102.59C75.5351 101.722 75.1248 100.633 75.0977 99.5013V94.3263C79.9023 93.6865 84.3111 91.3236 87.5043 87.677C90.6975 84.0304 92.4577 79.3483 92.4577 74.5013C92.4577 69.6542 90.6975 64.9721 87.5043 61.3255C84.3111 57.6789 79.9023 55.3161 75.0977 54.6763V44.5013C75.0977 43.1752 75.6245 41.9034 76.5621 40.9657C77.4998 40.028 78.7716 39.5013 80.0977 39.5013C81.4237 39.5013 82.6955 40.028 83.6332 40.9657C84.5709 41.9034 85.0977 43.1752 85.0977 44.5013V47.0013C85.0977 47.6643 85.3611 48.3002 85.8299 48.769C86.2987 49.2379 86.9346 49.5013 87.5977 49.5013C89.6336 49.5025 91.6385 50.0011 93.4379 50.9535C95.2373 51.906 96.7768 53.2836 97.9226 54.9666C99.0684 56.6495 99.7858 58.5869 100.012 60.6102C100.239 62.6335 99.9678 64.6816 99.2227 66.5763C99.0249 67.092 99.0035 67.6587 99.1618 68.1878C99.3201 68.717 99.6492 69.1789 100.098 69.5013C101.91 70.8625 103.318 72.6908 104.171 74.7905C105.024 76.8902 105.29 79.1824 104.941 81.4217C104.591 83.6611 103.64 85.7633 102.188 87.5035C100.736 89.2437 98.8382 90.5565 96.6977 91.3013H96.6477Z" fill="black"/>
<path d="M77.5977 69.5022H72.3477L73.9727 67.1272C74.3506 66.5802 74.4958 65.9055 74.3762 65.2514C74.2566 64.5974 73.8822 64.0177 73.3352 63.6397C72.7882 63.2618 72.1134 63.1166 71.4594 63.2362C70.8054 63.3557 70.2256 63.7302 69.8477 64.2772L65.5477 70.6022C65.2945 70.9767 65.1476 71.4129 65.1226 71.8643C65.0977 72.3157 65.1956 72.7654 65.4059 73.1655C65.6163 73.5657 65.9312 73.9013 66.3171 74.1367C66.7031 74.3721 67.1456 74.4984 67.5977 74.5022H73.5227L69.6977 82.0022C69.4011 82.5926 69.3504 83.2764 69.5565 83.9042C69.7626 84.5319 70.2089 85.0525 70.7977 85.3522C71.1427 85.5394 71.5302 85.6341 71.9227 85.6272C72.3843 85.6258 72.8366 85.4966 73.2293 85.2539C73.6221 85.0112 73.9399 84.6645 74.1477 84.2522L79.8227 73.0522C79.9975 72.6746 80.0753 72.2594 80.0491 71.8441C80.0228 71.4289 79.8933 71.0267 79.6724 70.6742C79.4514 70.3216 79.1459 70.0298 78.7836 69.8251C78.4213 69.6205 78.0137 69.5095 77.5977 69.5022Z" fill="black"/>
</svg>
