<?xml version="1.0"?>
<svg xmlns="http://www.w3.org/2000/svg" width="145" height="144" viewBox="0 0 145 144" fill="none">
<rect x="0.264313" width="144" height="144" rx="72" fill="#FFE045"/>
<path d="M102.264 84.5H99.7643V59.5C99.7643 58.1739 99.2375 56.9021 98.2998 55.9645C97.3622 55.0268 96.0904 54.5 94.7643 54.5H89.7643C88.4382 54.5 87.1665 55.0268 86.2288 55.9645C85.2911 56.9021 84.7643 58.1739 84.7643 59.5V84.5H79.7643V49.5C79.7643 48.1739 79.2375 46.9021 78.2998 45.9645C77.3622 45.0268 76.0904 44.5 74.7643 44.5H69.7643C68.4382 44.5 67.1665 45.0268 66.2288 45.9645C65.2911 46.9021 64.7643 48.1739 64.7643 49.5V84.5H59.7643V69.5C59.7643 68.1739 59.2375 66.9021 58.2998 65.9645C57.3622 65.0268 56.0904 64.5 54.7643 64.5H49.7643C48.4382 64.5 47.1665 65.0268 46.2288 65.9645C45.2911 66.9021 44.7643 68.1739 44.7643 69.5V84.5H42.2643C40.2752 84.5 38.3675 85.2902 36.961 86.6967C35.5545 88.1032 34.7643 90.0109 34.7643 92V97C34.7643 97.663 35.0277 98.2989 35.4965 98.7678C35.9654 99.2366 36.6013 99.5 37.2643 99.5H107.264C107.927 99.5 108.563 99.2366 109.032 98.7678C109.501 98.2989 109.764 97.663 109.764 97V92C109.764 90.0109 108.974 88.1032 107.568 86.6967C106.161 85.2902 104.253 84.5 102.264 84.5ZM89.7643 59.5H94.7643V84.5H89.7643V59.5ZM69.7643 49.5H74.7643V84.5H69.7643V49.5ZM49.7643 69.5H54.7643V84.5H49.7643V69.5ZM104.764 94.5H39.7643V92C39.7643 91.337 40.0277 90.7011 40.4965 90.2322C40.9654 89.7634 41.6013 89.5 42.2643 89.5H102.264C102.927 89.5 103.563 89.7634 104.032 90.2322C104.501 90.7011 104.764 91.337 104.764 92V94.5Z" fill="black"/>
</svg>
