<?xml version="1.0"?>
<svg xmlns="http://www.w3.org/2000/svg" width="145" height="144" viewBox="0 0 145 144" fill="none">
<rect x="0.93103" width="144" height="144" rx="72" fill="#FF6392"/>
<path d="M110.206 64.8752L106.856 52.5252C105.931 49.1502 102.431 47.1502 99.081 48.0752L96.556 48.7752L94.531 41.3002C94.006 39.3252 92.731 37.7002 90.956 36.6752C89.181 35.6752 87.131 35.4002 85.181 35.9252C81.781 36.8502 79.556 39.9752 79.581 43.3502L51.781 60.9502L44.881 62.8252C41.606 63.7252 38.856 65.8252 37.156 68.8002C35.456 71.7502 35.031 75.2002 35.906 78.4752C36.806 81.7502 38.906 84.5002 41.881 86.2002C43.831 87.3252 46.006 87.9002 48.181 87.9002C49.306 87.9002 50.431 87.7502 51.556 87.4502L51.956 87.3502L60.706 108.025C61.106 108.975 62.031 109.55 63.006 109.55C63.331 109.55 63.656 109.475 63.981 109.35L68.706 107.35C72.581 105.7 74.381 101.225 72.756 97.3752L71.731 94.9502L74.131 93.9252C76.006 93.1252 77.481 91.6502 78.231 89.7752C78.681 88.6502 78.831 87.4502 78.731 86.2502L91.356 86.6752C92.031 87.8252 92.956 88.8252 94.156 89.5002C95.331 90.1752 96.631 90.5002 97.931 90.5002C98.606 90.5002 99.281 90.4002 99.931 90.2252C101.906 89.7002 103.531 88.4252 104.556 86.6502C105.556 84.8752 105.831 82.8252 105.306 80.8752L103.281 73.4002L105.806 72.7002C107.431 72.2502 108.806 71.2002 109.656 69.7252C110.506 68.2502 110.706 66.5502 110.281 64.9002L110.206 64.8752ZM60.056 80.5752L55.656 64.3752L71.606 54.2752L78.931 81.2002L60.056 80.5752ZM76.031 51.4752L80.681 48.5502L89.656 81.5502L84.181 81.3752L76.056 51.4752H76.031ZM44.331 81.8252C42.531 80.8002 41.256 79.1252 40.706 77.1252C40.156 75.1252 40.431 73.0502 41.456 71.2502C42.481 69.4502 44.156 68.1752 46.156 67.6252L51.006 66.3002L55.081 81.2502L50.231 82.5752C48.231 83.1252 46.156 82.8502 44.356 81.8252H44.331ZM66.731 102.675L64.306 103.7L56.781 85.9502L58.406 85.5002L62.331 85.6252L68.106 99.2252C68.656 100.55 68.031 102.075 66.706 102.65L66.731 102.675ZM73.581 87.8252C73.331 88.4752 72.831 88.9752 72.156 89.2502L69.756 90.2752L67.856 85.8252L73.581 86.0252C73.781 86.6252 73.781 87.2502 73.581 87.8502V87.8252ZM100.181 84.1002C99.831 84.7002 99.281 85.1502 98.606 85.3252C97.206 85.7002 95.756 84.8752 95.381 83.4752L84.631 43.9252C84.456 43.2502 84.531 42.5502 84.881 41.9252C85.231 41.3002 85.781 40.8752 86.456 40.7002C86.681 40.6502 86.906 40.6002 87.131 40.6002C88.281 40.6002 89.356 41.3752 89.656 42.5252L100.406 82.0752C100.581 82.7502 100.506 83.4502 100.156 84.0752L100.181 84.1002ZM105.256 67.1752C105.081 67.4752 104.781 67.7002 104.456 67.8002L101.931 68.5002L97.856 53.5502L100.381 52.8502C100.731 52.7502 101.081 52.8002 101.406 52.9752C101.706 53.1502 101.931 53.4502 102.031 53.7752L105.381 66.1252C105.481 66.4752 105.431 66.8252 105.256 67.1502V67.1752Z" fill="black"/>
<path d="M51.856 45.9995C52.331 46.6995 53.106 47.0745 53.906 47.0745C54.406 47.0745 54.906 46.9245 55.331 46.6245C56.456 45.8245 56.731 44.2745 55.931 43.1495L51.756 37.1995C50.956 36.0745 49.406 35.7995 48.281 36.5995C47.156 37.3995 46.881 38.9495 47.681 40.0745L51.856 46.0245V45.9995Z" fill="black"/>
<path d="M64.331 42.9487C64.481 42.9737 64.631 42.9987 64.756 42.9987C65.956 42.9987 67.006 42.1487 67.206 40.9237L67.806 37.4487C68.056 36.0987 67.131 34.7987 65.781 34.5487C64.406 34.2987 63.131 35.2237 62.881 36.5737L62.281 40.0487C62.031 41.3987 62.956 42.6987 64.306 42.9487H64.331Z" fill="black"/>
<path d="M42.181 54.9271L45.656 55.6271C45.831 55.6521 45.981 55.6771 46.156 55.6771C47.331 55.6771 48.356 54.8521 48.606 53.6771C48.881 52.3271 48.006 51.0021 46.656 50.7271L43.181 50.0271C41.831 49.7521 40.506 50.6271 40.231 51.9771C39.956 53.3271 40.831 54.6521 42.181 54.9271Z" fill="black"/>
</svg>
