<?xml version="1.0"?>
<svg xmlns="http://www.w3.org/2000/svg" width="145" height="144" viewBox="0 0 145 144" fill="none">
<rect x="0.264313" width="144" height="144" rx="72" fill="#5EE67E"/>
<path d="M59.1393 82H51.6393C50.2643 82 49.1393 83.125 49.1393 84.5C49.1393 85.875 50.2643 87 51.6393 87H54.7643V88.25C54.7643 89.625 55.8893 90.75 57.2643 90.75C58.6393 90.75 59.7643 89.625 59.7643 88.25V86.925C62.9143 86.6 65.3893 83.975 65.3893 80.75C65.3893 77.3 62.5893 74.5 59.1393 74.5H55.3893C54.6893 74.5 54.1393 73.95 54.1393 73.25C54.1393 72.55 54.6893 72 55.3893 72H62.8893C64.2643 72 65.3893 70.875 65.3893 69.5C65.3893 68.125 64.2643 67 62.8893 67H59.7643V65.75C59.7643 64.375 58.6393 63.25 57.2643 63.25C55.8893 63.25 54.7643 64.375 54.7643 65.75V67.075C51.6143 67.4 49.1393 70.025 49.1393 73.25C49.1393 76.7 51.9393 79.5 55.3893 79.5H59.1393C59.8393 79.5 60.3893 80.05 60.3893 80.75C60.3893 81.45 59.8393 82 59.1393 82Z" fill="black"/>
<path d="M109.064 79.5984L95.3393 50.1734C94.2393 47.8234 92.0393 46.2234 89.4643 45.8984L81.0143 44.8734V42.0234C81.0143 37.8984 77.6393 34.5234 73.5143 34.5234H62.2643C58.1393 34.5234 54.7643 37.8984 54.7643 42.0234V45.6484L38.2893 55.9484C36.0893 57.3234 34.7643 59.6984 34.7643 62.2984V102.023C34.7643 106.148 38.1393 109.523 42.2643 109.523H72.2643C76.3893 109.523 79.7643 106.148 79.7643 102.023V100.298C80.0393 100.323 80.3143 100.373 80.6143 100.373C81.6893 100.373 82.7643 100.148 83.7893 99.6734L105.439 89.5734C107.264 88.7234 108.639 87.2234 109.314 85.3484C109.989 83.4734 109.914 81.4234 109.064 79.6234V79.5984ZM90.8143 52.2734L100.789 73.6734L79.7643 83.4734V62.2484C79.7643 59.6484 78.4393 57.2734 76.2393 55.8984L70.9393 52.5734L73.3143 48.9234L88.8393 50.8234C89.6893 50.9234 90.4393 51.4734 90.7893 52.2484L90.8143 52.2734ZM62.2643 39.4984H73.5143C74.8893 39.4984 76.0143 40.6234 76.0143 41.9984V44.2234L72.3643 43.7734C71.4143 43.6734 70.4893 44.0984 69.9643 44.8984L66.6893 49.9484L59.7643 45.6234V41.9984C59.7643 40.6234 60.8893 39.4984 62.2643 39.4984ZM40.9393 60.1484L54.7643 51.4984V54.4984C54.7643 55.8734 55.8893 56.9984 57.2643 56.9984C58.6393 56.9984 59.7643 55.8734 59.7643 54.4984V51.4984L73.5893 60.1484C74.3143 60.5984 74.7643 61.3984 74.7643 62.2734V94.4984H39.7643V62.2734C39.7643 61.3984 40.2143 60.6234 40.9393 60.1484ZM72.2643 104.498H42.2643C40.8893 104.498 39.7643 103.373 39.7643 101.998V99.4984H74.7643V101.998C74.7643 103.373 73.6393 104.498 72.2643 104.498ZM103.314 85.0234L81.6643 95.1234C81.0643 95.3984 80.3643 95.3984 79.7643 95.1984V89.0234L102.889 78.2234L104.514 81.7234C105.089 82.9734 104.564 84.4734 103.314 85.0484V85.0234Z" fill="black"/>
</svg>
